HIERARCHY
ROOT Hips
{
	OFFSET 0.0000 0.0000 0.0000
	CHANNELS 6 Xposition Yposition Zposition Zrotation Xrotation Yrotation
	JOINT LHipJoint
	{
		OFFSET 0.0000 0.0000 0.0000
		CHANNELS 3 Zrotation Xrotation Yrotation
		JOINT LeftUpLeg
		{
			OFFSET 2.0000 0.0000 0.0000
			CHANNELS 3 Zrotation Xrotation Yrotation
			JOINT LeftKnee
			{
				OFFSET 0.0000 -5.0000 0.0000
				CHANNELS 3 Zrotation Xrotation Yrotation
				JOINT LeftFoot
				{
					OFFSET 0.0000 -6.0000 0.0000
					CHANNELS 3 Zrotation Xrotation Yrotation
				}
			}
		}
	}
	JOINT RHipJoint
	{
		OFFSET 0.0000 0.0000 0.0000
		CHANNELS 3 Zrotation Xrotation Yrotation
		JOINT RightUpLeg
		{
			OFFSET -2.0000 0.0000 0.0000
			CHANNELS 3 Zrotation Xrotation Yrotation
			JOINT RightKnee
			{
				OFFSET 0.0000 -5.0000 0.0000
				CHANNELS 3 Zrotation Xrotation Yrotation
				JOINT RightFoot
				{
					OFFSET 0.0000 -6.0000 0.0000
					CHANNELS 3 Zrotation Xrotation Yrotation
				}
			}
		}
	}
	JOINT NECK
	{
		OFFSET 0.0000 0.0000 12.0000
		CHANNELS 3 Zrotation Xrotation Yrotation
		JOINT LShoulder
		{
			OFFSET 0.0000 0.0000 0.0000
			CHANNELS 3 Zrotation Xrotation Yrotation
			JOINT LLimb
			{
				OFFSET 2.0000 0.0000 0.0000
				CHANNELS 3 Zrotation Xrotation Yrotation
				JOINT LShoulder
				{
					OFFSET 0.0000 -5.0000 0.0000
					CHANNELS 3 Zrotation Xrotation Yrotation
					JOINT LHand
					{
						OFFSET 0.0000 -6.0000 0.0000
						CHANNELS 3 Zrotation Xrotation Yrotation
					}
				}
			}
		}
		JOINT RShoulder
		{
			OFFSET 0.0000 0.0000 0.0000
			CHANNELS 3 Zrotation Xrotation Yrotation
			JOINT RLimb
			{
				OFFSET -2.0000 0.0000 0.0000
				CHANNELS 3 Zrotation Xrotation Yrotation
				JOINT RShoulder
				{
					OFFSET 0.0000 -5.0000 0.0000
					CHANNELS 3 Zrotation Xrotation Yrotation
					JOINT RHand
					{
						OFFSET 0.0000 -6.0000 0.0000
						CHANNELS 3 Zrotation Xrotation Yrotation
					}
				}
			}
		}
	}
}
MOTION
Frames: 12
Frame Time: 0.008333
8.8721 15.8210 69.4055 0.0000 0.0000 0.0000 0.0000 0.0000 0.0000 0.0000 29.9833 0.0000 0.0000 7.4989 0.0000 0.0000 0.0000 0.0000 0.0000 0.0000 0.0000 0.0000 -29.9833 0.0000 0.0000 7.6232 0.0000 0.0000 0.0000 0.0000 0.0000 0.0000 0.0000 0.0000 0.0000 0.0000 0.0000 -29.9833 0.0000 0.0000 7.6232 0.0000 0.0000 0.0000 0.0000 0.0000 0.0000 0.0000 0.0000 29.9833 0.0000 0.0000 7.4989 0.0000 0.0000 0.0000 0.0000 
8.8721 15.8221 69.3936 0.0000 0.0000 0.0000 0.0000 0.0000 0.0000 0.0000 29.9992 0.0000 0.0000 7.4980 0.0000 0.0000 0.0000 0.0000 0.0000 0.0000 0.0000 0.0000 -29.9992 0.0000 0.0000 7.4977 0.0000 0.0000 0.0000 0.0000 0.0000 0.0000 0.0000 0.0000 0.0000 0.0000 0.0000 -29.9992 0.0000 0.0000 7.4977 0.0000 0.0000 0.0000 0.0000 0.0000 0.0000 0.0000 0.0000 29.9992 0.0000 0.0000 7.4980 0.0000 0.0000 0.0000 0.0000 
8.8721 15.8329 69.4124 0.0000 0.0000 0.0000 0.0000 0.0000 0.0000 0.0000 29.8862 0.0000 0.0000 7.6402 0.0000 0.0000 0.0000 0.0000 0.0000 0.0000 0.0000 0.0000 -29.8862 0.0000 0.0000 7.4977 0.0000 0.0000 0.0000 0.0000 0.0000 0.0000 0.0000 0.0000 0.0000 0.0000 0.0000 -29.8862 0.0000 0.0000 7.4977 0.0000 0.0000 0.0000 0.0000 0.0000 0.0000 0.0000 0.0000 29.8862 0.0000 0.0000 7.6402 0.0000 0.0000 0.0000 0.0000 
8.8721 15.8548 69.4506 0.0000 0.0000 0.0000 0.0000 0.0000 0.0000 0.0000 29.6566 0.0000 0.0000 8.0297 0.0000 0.0000 0.0000 0.0000 0.0000 0.0000 0.0000 0.0000 -29.6566 0.0000 0.0000 7.4977 0.0000 0.0000 0.0000 0.0000 0.0000 0.0000 0.0000 0.0000 0.0000 0.0000 0.0000 -29.6566 0.0000 0.0000 7.4977 0.0000 0.0000 0.0000 0.0000 0.0000 0.0000 0.0000 0.0000 29.6566 0.0000 0.0000 8.0297 0.0000 0.0000 0.0000 0.0000 
8.8721 15.8884 69.5101 0.0000 0.0000 0.0000 0.0000 0.0000 0.0000 0.0000 29.3008 0.0000 0.0000 8.6703 0.0000 0.0000 0.0000 0.0000 0.0000 0.0000 0.0000 0.0000 -29.3008 0.0000 0.0000 7.4977 0.0000 0.0000 0.0000 0.0000 0.0000 0.0000 0.0000 0.0000 0.0000 0.0000 0.0000 -29.3008 0.0000 0.0000 7.4977 0.0000 0.0000 0.0000 0.0000 0.0000 0.0000 0.0000 0.0000 29.3008 0.0000 0.0000 8.6703 0.0000 0.0000 0.0000 0.0000 
8.8721 15.9339 69.5919 0.0000 0.0000 0.0000 0.0000 0.0000 0.0000 0.0000 28.8132 0.0000 0.0000 9.5513 0.0000 0.0000 0.0000 0.0000 0.0000 0.0000 0.0000 0.0000 -28.8132 0.0000 0.0000 7.4977 0.0000 0.0000 0.0000 0.0000 0.0000 0.0000 0.0000 0.0000 0.0000 0.0000 0.0000 -28.8132 0.0000 0.0000 7.4977 0.0000 0.0000 0.0000 0.0000 0.0000 0.0000 0.0000 0.0000 28.8132 0.0000 0.0000 9.5513 0.0000 0.0000 0.0000 0.0000 
8.8721 15.9899 69.6950 0.0000 0.0000 0.0000 0.0000 0.0000 0.0000 0.0000 28.2020 0.0000 0.0000 10.6606 0.0000 0.0000 0.0000 0.0000 0.0000 0.0000 0.0000 0.0000 -28.2020 0.0000 0.0000 7.4977 0.0000 0.0000 0.0000 0.0000 0.0000 0.0000 0.0000 0.0000 0.0000 0.0000 0.0000 -28.2020 0.0000 0.0000 7.4977 0.0000 0.0000 0.0000 0.0000 0.0000 0.0000 0.0000 0.0000 28.2020 0.0000 0.0000 10.6606 0.0000 0.0000 0.0000 0.0000 
8.8721 16.0553 69.8189 0.0000 0.0000 0.0000 0.0000 0.0000 0.0000 0.0000 27.4722 0.0000 0.0000 11.9628 0.0000 0.0000 0.0000 0.0000 0.0000 0.0000 0.0000 0.0000 -27.4722 0.0000 0.0000 7.4977 0.0000 0.0000 0.0000 0.0000 0.0000 0.0000 0.0000 0.0000 0.0000 0.0000 0.0000 -27.4722 0.0000 0.0000 7.4977 0.0000 0.0000 0.0000 0.0000 0.0000 0.0000 0.0000 0.0000 27.4722 0.0000 0.0000 11.9628 0.0000 0.0000 0.0000 0.0000 
8.8721 16.1294 69.9641 0.0000 0.0000 0.0000 0.0000 0.0000 0.0000 0.0000 26.6231 0.0000 0.0000 13.4476 0.0000 0.0000 0.0000 0.0000 0.0000 0.0000 0.0000 0.0000 -26.6231 0.0000 0.0000 7.4977 0.0000 0.0000 0.0000 0.0000 0.0000 0.0000 0.0000 0.0000 0.0000 0.0000 0.0000 -26.6231 0.0000 0.0000 7.4977 0.0000 0.0000 0.0000 0.0000 0.0000 0.0000 0.0000 0.0000 26.6231 0.0000 0.0000 13.4476 0.0000 0.0000 0.0000 0.0000 
8.8721 16.2116 70.1315 0.0000 0.0000 0.0000 0.0000 0.0000 0.0000 0.0000 25.6518 0.0000 0.0000 15.0835 0.0000 0.0000 0.0000 0.0000 0.0000 0.0000 0.0000 0.0000 -25.6518 0.0000 0.0000 7.4977 0.0000 0.0000 0.0000 0.0000 0.0000 0.0000 0.0000 0.0000 0.0000 0.0000 0.0000 -25.6518 0.0000 0.0000 7.4977 0.0000 0.0000 0.0000 0.0000 0.0000 0.0000 0.0000 0.0000 25.6518 0.0000 0.0000 15.0835 0.0000 0.0000 0.0000 0.0000 
8.8721 16.2999 70.3200 0.0000 0.0000 0.0000 0.0000 0.0000 0.0000 0.0000 24.5678 0.0000 0.0000 16.8477 0.0000 0.0000 0.0000 0.0000 0.0000 0.0000 0.0000 0.0000 -24.5678 0.0000 0.0000 7.4977 0.0000 0.0000 0.0000 0.0000 0.0000 0.0000 0.0000 0.0000 0.0000 0.0000 0.0000 -24.5678 0.0000 0.0000 7.4977 0.0000 0.0000 0.0000 0.0000 0.0000 0.0000 0.0000 0.0000 24.5678 0.0000 0.0000 16.8477 0.0000 0.0000 0.0000 0.0000 
8.8721 16.3916 70.5261 0.0000 0.0000 0.0000 0.0000 0.0000 0.0000 0.0000 23.3928 0.0000 0.0000 18.7047 0.0000 0.0000 0.0000 0.0000 0.0000 0.0000 0.0000 0.0000 -23.3928 0.0000 0.0000 7.4977 0.0000 0.0000 0.0000 0.0000 0.0000 0.0000 0.0000 0.0000 0.0000 0.0000 0.0000 -23.3928 0.0000 0.0000 7.4977 0.0000 0.0000 0.0000 0.0000 0.0000 0.0000 0.0000 0.0000 23.3928 0.0000 0.0000 18.7047 0.0000 0.0000 0.0000 0.0000 
